<?xml version="1.0" encoding="UTF-8" standalone="no"?>
<!-- Created with Inkscape (http://www.inkscape.org/) -->

<svg
   width="108.13253mm"
   height="79.079514mm"
   viewBox="0 0 108.13253 79.079514"
   version="1.1"
   id="svg38560"
   inkscape:version="1.2.1 (9c6d41e410, 2022-07-14)"
   sodipodi:docname="segment_reshape.svg"
   xmlns:inkscape="http://www.inkscape.org/namespaces/inkscape"
   xmlns:sodipodi="http://sodipodi.sourceforge.net/DTD/sodipodi-0.dtd"
   xmlns="http://www.w3.org/2000/svg"
   xmlns:svg="http://www.w3.org/2000/svg">
  <sodipodi:namedview
     id="namedview38562"
     pagecolor="#ffffff"
     bordercolor="#666666"
     borderopacity="1.0"
     inkscape:showpageshadow="2"
     inkscape:pageopacity="0.0"
     inkscape:pagecheckerboard="0"
     inkscape:deskcolor="#d1d1d1"
     inkscape:document-units="mm"
     showgrid="false"
     inkscape:zoom="0.2973261"
     inkscape:cx="-200.11698"
     inkscape:cy="132.85077"
     inkscape:window-width="1920"
     inkscape:window-height="997"
     inkscape:window-x="-9"
     inkscape:window-y="-9"
     inkscape:window-maximized="1"
     inkscape:current-layer="layer1" />
  <defs
     id="defs38557" />
  <g
     inkscape:label="Layer 1"
     inkscape:groupmode="layer"
     id="layer1"
     transform="translate(-40.10567,-30.514489)">
    <g
       id="g39078"
       transform="matrix(8.372109,0,0,8.372109,-295.66334,-224.95617)">
      <path
         id="path17191"
         style="fill:#85cf96;fill-opacity:1;stroke:none;stroke-width:0.304;stroke-linecap:round;stroke-linejoin:bevel;stroke-dasharray:none;stroke-dashoffset:0;stroke-opacity:1"
         d="m 42.5231,30.705632 c 1.9179,-0.658434 2.8196,0.563557 4.4331,0.964162 0.4572,0.113484 2.5526,-0.66782 3.2554,0.160692 0.7666,0.903831 0.863,2.838261 -0.4064,3.532281 -1.2771,0.69821 -3.8123,0.1549 -4.708,0.46241 -1.9179,0.65847 -4.0488,0.0462 -4.7597,-1.36754 -0.7108,-1.41372 0.2677,-3.093502 2.1856,-3.752005 z"
         sodipodi:nodetypes="ssassss" />
      <path
         id="path26791"
         style="fill:#a5a5a5;fill-opacity:1;stroke:none;stroke-width:0.304;stroke-linecap:round;stroke-linejoin:bevel;stroke-dasharray:none;stroke-dashoffset:0;stroke-opacity:1"
         d="m 50.5552,34.559207 c -0.1571,0.32981 -0.402,0.61336 -0.7499,0.80357 -1.2771,0.69821 -3.8125,0.155 -4.7082,0.46251 -0.8025,0.27553 -1.6419,0.32783 -2.3993,0.19275 -0.5531,0.98026 -0.5117,2.59373 0.6242,3.21479 1.2771,0.69821 3.8126,0.155 4.7083,0.46251 1.9178,0.65846 4.0485,0.0464 4.7593,-1.36736 0.7108,-1.41372 -0.2674,-3.09373 -2.1853,-3.75223 -0.017,-0.006 -0.033,-0.0111 -0.049,-0.0165 z" />
      <path
         id="path27947"
         style="fill:#eddc4f;fill-opacity:1;stroke:none;stroke-width:0.265;stroke-linecap:butt;stroke-linejoin:miter;stroke-dasharray:0.265, 0.265;stroke-dashoffset:0;stroke-opacity:1"
         d="m 50.5304,34.609337 c -0.1577,0.30831 -0.395,0.57297 -0.7251,0.75344 -1.2771,0.69822 -3.8125,0.155 -4.7082,0.46251 -0.7854,0.26963 -1.6061,0.32583 -2.3508,0.20154 -0.02,0.0675 0.039,0.25294 0.8238,0.66042 1.0459,0.54331 2.1783,1.46247 3.36,1.2044 1.1817,-0.25807 3.4338,-0.053 3.9907,-0.27037 0.5569,-0.21732 0.2825,-1.4226 0.2689,-1.54484 -0.014,-0.12034 -0.6396,-1.42597 -0.6593,-1.4671 z"
         sodipodi:nodetypes="csscssscc" />
      <path
         style="fill:none;stroke:#000000;stroke-width:0.265;stroke-linecap:round;stroke-linejoin:miter;stroke-dasharray:none;stroke-opacity:1"
         d="m 42.8363,36.103397 c 0,0 1.0866,0.17657 1.9559,-0.0679 0.8693,-0.24449 1.8473,-0.25807 3.0562,-0.21733 1.2088,0.0408 2.0645,-0.33956 2.2819,-0.61122 0.2173,-0.27165 0.4075,-0.55689 0.4075,-0.55689"
         id="path27945"
         sodipodi:nodetypes="csssc" />
      <path
         style="fill:none;stroke:#000000;stroke-width:0.365;stroke-linecap:butt;stroke-linejoin:miter;stroke-dasharray:0.365, 0.365;stroke-dashoffset:0;stroke-opacity:1"
         d="m 43.0198,36.130557 c 0,0 0.2209,0.21093 0.6982,0.46931 0.266,0.144 0.8543,0.49035 1.1953,0.67852 0.3544,0.19558 0.4447,0.26585 0.8474,0.41562 0.4054,0.15077 0.5857,0.11214 1.332,-0.0193 0.4504,-0.0793 0.8587,-0.038 1.3538,-0.0983 0.8187,-0.0997 2.2222,0.0229 2.4253,-0.10402 0.151,-0.0944 0.237,-0.46908 0.2172,-0.65061 -0.022,-0.20201 0,-0.49803 -0.1374,-0.84056 -0.2581,-0.63838 -0.5671,-1.14059 -0.3464,-1.2632"
         id="path28892"
         sodipodi:nodetypes="cssssssssc" />
    </g>
  </g>
</svg>
